<svg width="90" height="84" viewBox="0 0 90 84" fill="none" xmlns="http://www.w3.org/2000/svg">
<path d="M26.945 57.9926C18.1021 60.2289 5.70144 68.6654 0.517334 73.9508L0.822277 77.61C11.0033 69.4401 16.7036 65.5969 26.8433 61.1435L26.945 57.9926Z" fill="#347225" stroke="#1B3319"/>
<path d="M68.9998 0.5C64.2029 4.92787 53.2417 13.864 44.5358 16.551C35.5694 19.3184 20.9574 31.9379 22.5072 39.4652C24.2712 48.0334 34.6838 47.7675 35.9015 46.2177C37.1192 44.668 41.8791 36.255 45.9749 33.3769C48.1307 31.862 54.0279 27.8938 59.3244 21.8111C64.0907 16.3374 68.3706 9.1513 68.9998 0.5Z" fill="#F70E9D"/>
<path d="M45.9749 33.3769C41.8791 36.255 37.1192 44.668 35.9015 46.2177C49.1851 50.2028 58.7377 45.467 65.6789 42.7861C72.6201 40.1052 84.3867 31.163 87.1541 21.9752C83.7225 22.8607 80.5123 23.1485 74.756 22.0859C67.5607 20.7575 65.1465 20.9829 59.3244 21.8111C54.0279 27.8938 48.1307 31.862 45.9749 33.3769Z" fill="#9C0062"/>
<path d="M68.9998 0.5L69.4985 0.536269C69.5133 0.331606 69.4017 0.138626 69.2168 0.0495566C69.0319 -0.0395129 68.8114 -0.00658697 68.6606 0.132599L68.9998 0.5ZM44.5358 16.551L44.6833 17.0288L44.5358 16.551ZM22.5072 39.4652L22.9969 39.3644L22.5072 39.4652ZM45.9749 33.3769L46.2624 33.786L45.9749 33.3769ZM87.1541 21.9752L87.6328 22.1194C87.6849 21.9465 87.6397 21.759 87.5146 21.6288C87.3895 21.4986 87.204 21.4459 87.0291 21.491L87.1541 21.9752ZM74.756 22.0859L74.6653 22.5776L74.756 22.0859ZM59.3244 21.8111L58.9473 21.4828L59.3244 21.8111ZM68.9998 0.5L68.6606 0.132599C66.2755 2.33423 62.353 5.66093 57.9455 8.76975C53.5301 11.8842 48.6649 14.7533 44.3884 16.0733L44.5358 16.551L44.6833 17.0288C49.1126 15.6617 54.081 12.7193 58.5219 9.58693C62.9707 6.44895 66.9272 3.09364 69.3389 0.867401L68.9998 0.5ZM44.5358 16.551L44.3884 16.0733C39.8056 17.4877 33.8449 21.3886 29.2298 25.8642C26.9182 28.106 24.9221 30.5129 23.5992 32.8523C22.283 35.18 21.5943 37.5106 22.0174 39.5661L22.5072 39.4652L22.9969 39.3644C22.6452 37.6562 23.2018 35.5866 24.4697 33.3446C25.7309 31.1143 27.6576 28.782 29.926 26.5821C34.4711 22.1743 40.2996 18.3818 44.6833 17.0288L44.5358 16.551ZM22.5072 39.4652L22.0174 39.5661C22.9476 44.0838 26.1742 46.2725 29.2778 47.1181C30.825 47.5397 32.3561 47.6336 33.5892 47.5192C34.2054 47.4621 34.7596 47.3518 35.211 47.1969C35.6445 47.0482 36.0522 46.8352 36.2947 46.5267L35.9015 46.2177L35.5083 45.9088C35.4463 45.9877 35.2623 46.1221 34.8864 46.251C34.5284 46.3739 34.0556 46.4717 33.4968 46.5235C32.38 46.6271 30.9693 46.5426 29.5407 46.1533C26.6925 45.3773 23.8308 43.4148 22.9969 39.3644L22.5072 39.4652ZM35.9015 46.2177L36.2947 46.5267C36.6173 46.116 37.1605 45.2716 37.8328 44.2342C38.5142 43.1828 39.3472 41.9023 40.2689 40.5816C42.1257 37.9212 44.2953 35.1683 46.2624 33.786L45.9749 33.3769L45.6874 32.9678C43.5587 34.4637 41.3005 37.3563 39.4489 40.0093C38.5164 41.3454 37.6752 42.6386 36.9936 43.6904C36.3029 44.7562 35.7945 45.5446 35.5083 45.9088L35.9015 46.2177ZM87.1541 21.9752L87.0291 21.491C83.6742 22.3568 80.5379 22.6448 74.8468 21.5942L74.756 22.0859L74.6653 22.5776C80.4866 23.6523 83.7708 23.3646 87.279 22.4593L87.1541 21.9752ZM45.9749 33.3769L46.2624 33.786C48.4146 32.2736 54.3598 28.2739 59.7015 22.1395L59.3244 21.8111L58.9473 21.4828C53.6959 27.5136 47.8468 31.4505 45.6874 32.9678L45.9749 33.3769ZM59.3244 21.8111L59.7015 22.1395C64.5082 16.6193 68.8586 9.33427 69.4985 0.536269L68.9998 0.5L68.5011 0.463731C67.8826 8.96833 63.6732 16.0555 58.9473 21.4828L59.3244 21.8111ZM74.756 22.0859L74.8468 21.5942C71.2357 20.9275 68.8002 20.6461 66.5266 20.6398C64.2555 20.6335 62.1636 20.9022 59.254 21.3161L59.3244 21.8111L59.3948 22.3061C62.3073 21.8918 64.3335 21.6337 66.5239 21.6398C68.7118 21.6458 71.0811 21.9159 74.6653 22.5776L74.756 22.0859ZM87.1541 21.9752L86.6753 21.831C85.3301 26.297 81.7745 30.7549 77.6482 34.4482C73.5273 38.1367 68.901 41.0057 65.4988 42.3197L65.6789 42.7861L65.859 43.2526C69.3981 41.8857 74.1256 38.9431 78.3151 35.1933C82.4993 31.4483 86.2106 26.8411 87.6328 22.1194L87.1541 21.9752ZM65.6789 42.7861L65.4988 42.3197C58.5259 45.0128 49.1379 49.6667 36.0452 45.7388L35.9015 46.2177L35.7578 46.6967C49.2323 50.739 58.9494 45.9212 65.859 43.2526L65.6789 42.7861Z" fill="#79004E"/>
<path d="M59.4547 25.2821C58.557 26.1349 50.6428 33.1743 47.5148 35.9203L52.4972 37.626C53.3851 36.9757 55.1403 35.4916 56.5371 34.3942C58.4223 32.9129 63.4034 28.9313 63.0008 26.7634C62.5982 24.5954 60.333 24.4477 59.4547 25.2821Z" fill="#F5DC88"/>
<path d="M63.5844 31.8805C62.5933 32.2769 58.0667 36.3549 56.0433 38.2545C57.5712 38.8016 60.4297 39.7961 60.8013 39.8704C61.2659 39.9633 66.0375 35.2461 66.502 33.9453C66.9666 32.6445 64.8232 31.385 63.5844 31.8805Z" fill="#F5DC88"/>
<path d="M59.4547 25.2821C58.557 26.1349 50.6428 33.1743 47.5148 35.9203L52.4972 37.626C53.3851 36.9757 55.1403 35.4916 56.5371 34.3942C58.4223 32.9129 63.4034 28.9313 63.0008 26.7634C62.5982 24.5954 60.333 24.4477 59.4547 25.2821Z" stroke="#CECE6F"/>
<path d="M63.5844 31.8805C62.5933 32.2769 58.0667 36.3549 56.0433 38.2545C57.5712 38.8016 60.4297 39.7961 60.8013 39.8704C61.2659 39.9633 66.0375 35.2461 66.502 33.9453C66.9666 32.6445 64.8232 31.385 63.5844 31.8805Z" stroke="#CECE6F"/>
<path d="M16.1884 47.3807C16.1023 54.4466 21.3723 56.7321 25.438 59.1715C25.8108 59.3071 27.0848 59.0902 29.199 57.1386C31.8417 54.6992 46.7835 57.3419 52.6789 57.1386C58.5743 56.9354 79.4113 49.2104 89.271 34.6751C87.543 37.2163 75.6506 39.5541 69.9585 39.4525C64.2664 39.3508 49.2229 34.0653 45.9703 33.2521C42.7177 32.439 36.619 31.9307 28.894 33.7603C21.169 35.5899 16.2746 40.3149 16.1884 47.3807Z" fill="#D80B84"/>
<path d="M75.1424 60.6962C90.2874 45.7544 89.271 39.9607 89.271 34.6751C79.4113 49.2104 58.5743 56.9354 52.6789 57.1386C46.7835 57.3419 31.8417 54.6992 29.199 57.1386C27.0848 59.0902 25.8108 59.3071 25.438 59.1715C23.8117 64.6604 19.9562 83.0137 34.6878 83.4647C44.649 83.7696 64.9602 70.7417 75.1424 60.6962Z" fill="#C5067A"/>
<path d="M89.271 34.6751L89.771 34.6751C89.771 34.4557 89.6278 34.2618 89.4181 34.1973C89.2083 34.1327 88.9809 34.2125 88.8575 34.394L89.271 34.6751ZM75.1424 60.6962L75.4935 61.0522L75.1424 60.6962ZM34.6878 83.4647L34.7031 82.9649L34.6878 83.4647ZM29.199 57.1386L28.8598 56.7712L29.199 57.1386ZM25.438 59.1715L25.6953 58.7428C23.6182 57.4965 21.3649 56.3589 19.6043 54.6521C17.8783 52.9787 16.6471 50.7694 16.6884 47.3868L16.1884 47.3807L15.6885 47.3746C15.6435 51.058 17.0043 53.5243 18.9082 55.37C20.7775 57.1822 23.1921 58.4071 25.1808 59.6003L25.438 59.1715ZM16.1884 47.3807L16.6884 47.3868C16.73 43.9775 17.9276 41.1523 20.0374 38.9531C22.1543 36.7466 25.2141 35.1457 29.0092 34.2469L28.894 33.7603L28.7787 33.2738C24.8488 34.2046 21.5989 35.881 19.3158 38.2608C17.0257 40.6479 15.733 43.7182 15.6885 47.3746L16.1884 47.3807ZM28.894 33.7603L29.0092 34.2469C36.6606 32.4347 42.678 32.9445 45.849 33.7372L45.9703 33.2521L46.0916 32.7671C42.7573 31.9335 36.5774 31.4268 28.7787 33.2738L28.894 33.7603ZM45.9703 33.2521L45.849 33.7372C47.4664 34.1415 51.9906 35.6516 56.9084 37.0988C59.352 37.8178 61.8784 38.5166 64.1538 39.0423C66.42 39.5659 68.4707 39.926 69.9495 39.9524L69.9585 39.4525L69.9674 38.9525C68.6001 38.9281 66.6359 38.5894 64.3789 38.068C62.1312 37.5486 59.6261 36.8561 57.1907 36.1394C52.3506 34.7152 47.7268 33.1759 46.0916 32.7671L45.9703 33.2521ZM69.9585 39.4525L69.9495 39.9524C72.8495 40.0042 77.2882 39.4371 81.2124 38.5423C83.177 38.0944 85.0303 37.5604 86.5095 36.9726C87.2488 36.6788 87.9054 36.3674 88.4394 36.0407C88.9661 35.7185 89.4103 35.3595 89.6844 34.9563L89.271 34.6751L88.8575 34.394C88.6997 34.6261 88.3942 34.896 87.9176 35.1877C87.4483 35.4748 86.8477 35.7621 86.1402 36.0433C84.7257 36.6054 82.9262 37.1259 80.9901 37.5673C77.1131 38.4514 72.7596 39.0024 69.9674 38.9525L69.9585 39.4525ZM89.271 34.6751L88.771 34.6751C88.771 37.3403 89.0182 40.0053 87.4238 43.8741C85.8216 47.7616 82.3428 52.89 74.7912 60.3403L75.1424 60.6962L75.4935 61.0522C83.087 53.5606 86.6725 48.3213 88.3483 44.2551C90.0319 40.1701 89.771 37.2955 89.771 34.6751L89.271 34.6751ZM75.1424 60.6962L74.7912 60.3403C69.734 65.3296 62.1448 71.0738 54.5784 75.531C50.7966 77.7589 47.0308 79.659 43.5995 80.9818C40.1585 82.3084 37.0948 83.0381 34.7031 82.9649L34.6878 83.4647L34.6725 83.9644C37.2614 84.0437 40.472 83.2592 43.9592 81.9149C47.4559 80.5669 51.2722 78.6393 55.086 76.3926C62.7111 71.9008 70.3686 66.1083 75.4935 61.0522L75.1424 60.6962ZM34.6878 83.4647L34.7031 82.9649C31.1337 82.8556 28.7497 81.6685 27.1704 79.9158C25.5787 78.1492 24.7547 75.7529 24.4248 73.1446C23.7637 67.9181 25.1102 62.038 25.9174 59.3136L25.438 59.1715L24.9586 59.0295C24.1396 61.7939 22.7452 67.8349 23.4327 73.27C23.777 75.9925 24.6497 78.6121 26.4275 80.5852C28.2177 82.572 30.8761 83.8482 34.6725 83.9644L34.6878 83.4647ZM25.438 59.1715L25.2672 59.6414C25.4709 59.7155 25.7149 59.718 25.9622 59.6796C26.22 59.6397 26.5233 59.5489 26.8694 59.3943C27.5615 59.085 28.4532 58.5075 29.5381 57.506L29.199 57.1386L28.8598 56.7712C27.8305 57.7214 27.0281 58.2281 26.4615 58.4813C26.1782 58.6078 25.961 58.6679 25.809 58.6914C25.6466 58.7166 25.5916 58.6953 25.6089 58.7016L25.438 59.1715ZM29.199 57.1386L29.5381 57.506C29.7753 57.2871 30.199 57.0871 30.8416 56.9328C31.4733 56.7811 32.2634 56.6858 33.18 56.6374C35.0127 56.5406 37.2873 56.634 39.6849 56.7989C42.0839 56.9639 44.5728 57.1978 46.855 57.3798C49.1233 57.5606 51.1897 57.6903 52.6962 57.6383L52.6789 57.1386L52.6617 56.6389C51.2204 56.6886 49.2084 56.5642 46.9344 56.3829C44.6743 56.2028 42.1572 55.9666 39.7535 55.8013C37.3484 55.6358 35.0236 55.5386 33.1272 55.6388C32.1793 55.6888 31.3223 55.7889 30.6081 55.9604C29.9047 56.1293 29.2834 56.3803 28.8598 56.7712L29.199 57.1386ZM52.6789 57.1386L52.6962 57.6383C54.2425 57.585 56.7045 57.0459 59.6553 56.0613C62.6178 55.0727 66.1081 53.6231 69.721 51.7239C76.9389 47.9297 84.6914 42.3171 89.6848 34.9558L89.271 34.6751L88.8572 34.3945C83.9909 41.5684 76.3951 47.0859 69.2557 50.8388C65.69 52.7131 62.2495 54.1414 59.3388 55.1127C56.4164 56.0879 54.063 56.5906 52.6617 56.6389L52.6789 57.1386Z" fill="#79004E"/>
</svg>
